<svg width="24" height="24" viewBox="0 0 24 24" fill="none" xmlns="http://www.w3.org/2000/svg">
<path d="M20 14.9998L7 14.9998L8.6 13.7998C8.70506 13.721 8.79357 13.6223 8.86048 13.5093C8.92738 13.3963 8.97138 13.2712 8.98995 13.1412C9.00852 13.0112 9.00131 12.8788 8.96872 12.7516C8.93612 12.6244 8.87879 12.5049 8.8 12.3998C8.70685 12.2756 8.58607 12.1748 8.44721 12.1054C8.30836 12.036 8.15525 11.9998 8 11.9998C7.78363 11.9998 7.5731 12.07 7.4 12.1998L3.4 15.1998C3.27769 15.2931 3.17857 15.4134 3.11034 15.5513C3.04211 15.6892 3.00661 15.841 3.00661 15.9948C3.00661 16.1487 3.04211 16.3004 3.11034 16.4383C3.17857 16.5762 3.27769 16.6965 3.4 16.7898L7.26 19.7898C7.46952 19.9529 7.73526 20.0261 7.99874 19.9933C8.26223 19.9605 8.50189 19.8243 8.665 19.6148C8.82811 19.4053 8.90131 19.1396 8.86849 18.8761C8.83567 18.6126 8.69952 18.3729 8.49 18.2098L6.92 16.9998L20 16.9998C20.2652 16.9998 20.5196 16.8945 20.7071 16.7069C20.8946 16.5194 21 16.265 21 15.9998C21 15.7346 20.8946 15.4802 20.7071 15.2927C20.5196 15.1052 20.2652 14.9998 20 14.9998Z" fill="white"/>
<path d="M4 8L17 8L15.4 9.2C15.1878 9.35913 15.0476 9.59602 15.01 9.85858C14.9725 10.1211 15.0409 10.3878 15.2 10.6C15.3591 10.8122 15.596 10.9524 15.8586 10.9899C16.1211 11.0275 16.3878 10.9591 16.6 10.8L20.6 7.8C20.7223 7.70667 20.8214 7.58639 20.8897 7.4485C20.9579 7.31061 20.9934 7.15884 20.9934 7.005C20.9934 6.85115 20.9579 6.69938 20.8897 6.56149C20.8214 6.42361 20.7223 6.30332 20.6 6.21L16.74 3.21C16.5654 3.07453 16.3509 3.00069 16.13 3C15.9773 3.00036 15.8267 3.03571 15.6897 3.10331C15.5528 3.17091 15.4332 3.26898 15.34 3.39C15.1776 3.59847 15.1043 3.86274 15.1362 4.12507C15.168 4.3874 15.3024 4.62645 15.51 4.79L17.08 6L4 6C3.73478 6 3.48042 6.10535 3.29289 6.29289C3.10535 6.48043 3 6.73478 3 7C3 7.26521 3.10535 7.51957 3.29289 7.70711C3.48042 7.89464 3.73478 8 4 8Z" fill="white"/>
</svg>
