<svg width="17" height="17" viewBox="0 0 17 17" fill="none" xmlns="http://www.w3.org/2000/svg">
<path d="M8.5001 11.9C10.3779 11.9 11.9001 10.3778 11.9001 8.49999C11.9001 6.62222 10.3779 5.09999 8.5001 5.09999C6.62233 5.09999 5.1001 6.62222 5.1001 8.49999C5.1001 10.3778 6.62233 11.9 8.5001 11.9Z" fill="white"/>
<path d="M8.49997 3.40001C8.34968 3.40001 8.20554 3.34031 8.09927 3.23404C7.993 3.12777 7.9333 2.98364 7.9333 2.83335V1.70001C7.9333 1.54972 7.993 1.40559 8.09927 1.29932C8.20554 1.19305 8.34968 1.13335 8.49997 1.13335C8.65026 1.13335 8.79439 1.19305 8.90066 1.29932C9.00693 1.40559 9.06663 1.54972 9.06663 1.70001V2.83335C9.06663 2.98364 9.00693 3.12777 8.90066 3.23404C8.79439 3.34031 8.65026 3.40001 8.49997 3.40001ZM8.49997 15.8667C8.34968 15.8667 8.20554 15.807 8.09927 15.7007C7.993 15.5944 7.9333 15.4503 7.9333 15.3V14.1667C7.9333 14.0164 7.993 13.8723 8.09927 13.766C8.20554 13.6597 8.34968 13.6 8.49997 13.6C8.65026 13.6 8.79439 13.6597 8.90066 13.766C9.00693 13.8723 9.06663 14.0164 9.06663 14.1667V15.3C9.06663 15.4503 9.00693 15.5944 8.90066 15.7007C8.79439 15.807 8.65026 15.8667 8.49997 15.8667ZM2.8333 9.06668H1.69997C1.54968 9.06668 1.40554 9.00698 1.29927 8.90071C1.193 8.79444 1.1333 8.6503 1.1333 8.50001C1.1333 8.34972 1.193 8.20559 1.29927 8.09932C1.40554 7.99305 1.54968 7.93335 1.69997 7.93335H2.8333C2.98359 7.93335 3.12772 7.99305 3.23399 8.09932C3.34027 8.20559 3.39997 8.34972 3.39997 8.50001C3.39997 8.6503 3.34027 8.79444 3.23399 8.90071C3.12772 9.00698 2.98359 9.06668 2.8333 9.06668ZM15.3 9.06668H14.1666C14.0163 9.06668 13.8722 9.00698 13.7659 8.90071C13.6597 8.79444 13.6 8.6503 13.6 8.50001C13.6 8.34972 13.6597 8.20559 13.7659 8.09932C13.8722 7.99305 14.0163 7.93335 14.1666 7.93335H15.3C15.4503 7.93335 15.5944 7.99305 15.7007 8.09932C15.8069 8.20559 15.8666 8.34972 15.8666 8.50001C15.8666 8.6503 15.8069 8.79444 15.7007 8.90071C15.5944 9.00698 15.4503 9.06668 15.3 9.06668ZM3.68897 13.8777C3.5395 13.8756 3.39692 13.8144 3.2923 13.7077C3.18676 13.6015 3.12752 13.4579 3.12752 13.3082C3.12752 13.1585 3.18676 13.0149 3.2923 12.9087L4.0913 12.104C4.19801 11.9973 4.34273 11.9374 4.49363 11.9374C4.64454 11.9374 4.78926 11.9973 4.89597 12.104C5.00267 12.2107 5.06262 12.3554 5.06262 12.5063C5.06262 12.6573 5.00267 12.802 4.89597 12.9087L4.0913 13.7077C4.03882 13.7612 3.97623 13.8038 3.90717 13.833C3.83811 13.8622 3.76394 13.8774 3.68897 13.8777ZM12.5063 5.06035C12.4317 5.06078 12.3578 5.04648 12.2888 5.01828C12.2197 4.99008 12.1569 4.94853 12.104 4.89601C12.0509 4.84333 12.0087 4.78066 11.9799 4.71161C11.9512 4.64255 11.9363 4.56849 11.9363 4.49368C11.9363 4.41887 11.9512 4.34481 11.9799 4.27575C12.0087 4.2067 12.0509 4.14403 12.104 4.09135L12.9086 3.29235C13.017 3.19951 13.1565 3.151 13.2991 3.15651C13.4417 3.16202 13.577 3.22114 13.6779 3.32206C13.7788 3.42298 13.838 3.55827 13.8435 3.70088C13.849 3.8435 13.8005 3.98294 13.7076 4.09135L12.9086 4.89601C12.8557 4.94853 12.7929 4.99008 12.7238 5.01828C12.6548 5.04648 12.5809 5.06078 12.5063 5.06035ZM13.311 13.8777C13.236 13.8774 13.1618 13.8622 13.0928 13.833C13.0237 13.8038 12.9611 13.7612 12.9086 13.7077L12.104 12.9087C12.0511 12.8558 12.0092 12.7931 11.9806 12.7241C11.952 12.6551 11.9373 12.5811 11.9373 12.5063C11.9373 12.4316 11.952 12.3576 11.9806 12.2886C12.0092 12.2196 12.0511 12.1568 12.104 12.104C12.1568 12.0512 12.2195 12.0093 12.2886 11.9807C12.3576 11.9521 12.4316 11.9374 12.5063 11.9374C12.581 11.9374 12.655 11.9521 12.724 11.9807C12.7931 12.0093 12.8558 12.0512 12.9086 12.104L13.7076 12.9087C13.8132 13.0149 13.8724 13.1585 13.8724 13.3082C13.8724 13.4579 13.8132 13.6015 13.7076 13.7077C13.603 13.8144 13.4604 13.8756 13.311 13.8777ZM4.49363 5.06035C4.41906 5.06078 4.34513 5.04648 4.27609 5.01828C4.20705 4.99008 4.14425 4.94853 4.0913 4.89601L3.2923 4.09135C3.19947 3.98294 3.15096 3.8435 3.15646 3.70088C3.16197 3.55827 3.22109 3.42298 3.32202 3.32206C3.42294 3.22114 3.55822 3.16202 3.70084 3.15651C3.84345 3.151 3.9829 3.19951 4.0913 3.29235L4.89597 4.09135C4.94908 4.14403 4.99124 4.2067 5.02001 4.27575C5.04877 4.34481 5.06359 4.41887 5.06359 4.49368C5.06359 4.56849 5.04877 4.64255 5.02001 4.71161C4.99124 4.78066 4.94908 4.84333 4.89597 4.89601C4.84302 4.94853 4.78022 4.99008 4.71118 5.01828C4.64214 5.04648 4.56821 5.06078 4.49363 5.06035Z" fill="white"/>
</svg>
