<svg width="24" height="24" viewBox="0 0 24 24" fill="gray" xmlns="http://www.w3.org/2000/svg">
<path d="M9.00019 20L9.00019 7L10.2002 8.6C10.279 8.70506 10.3777 8.79357 10.4907 8.86048C10.6037 8.92738 10.7288 8.97138 10.8588 8.98995C10.9888 9.00852 11.1212 9.00131 11.2484 8.96872C11.3756 8.93612 11.4951 8.87879 11.6002 8.8C11.7244 8.70685 11.8252 8.58607 11.8946 8.44721C11.964 8.30836 12.0002 8.15525 12.0002 8C12.0002 7.78363 11.93 7.5731 11.8002 7.4L8.80019 3.4C8.70686 3.27769 8.58658 3.17857 8.44869 3.11034C8.3108 3.04211 8.15903 3.00661 8.00519 3.00661C7.85134 3.00661 7.69957 3.04211 7.56168 3.11034C7.4238 3.17857 7.30351 3.27769 7.21019 3.4L4.21019 7.26C4.04708 7.46952 3.97388 7.73526 4.0067 7.99874C4.03952 8.26223 4.17567 8.50189 4.38519 8.665C4.59471 8.82811 4.86044 8.90131 5.12393 8.86849C5.38742 8.83567 5.62708 8.69952 5.79019 8.49L7.00019 6.92L7.00019 20C7.00019 20.2652 7.10555 20.5196 7.29308 20.7071C7.48062 20.8946 7.73497 21 8.00019 21C8.2654 21 8.51976 20.8946 8.70729 20.7071C8.89483 20.5196 9.00019 20.2652 9.00019 20Z"/>
<path d="M16 3.99977L16 16.9998L14.8 15.3998C14.6409 15.1876 14.404 15.0473 14.1414 15.0098C13.8789 14.9723 13.6122 15.0406 13.4 15.1998C13.1878 15.3589 13.0476 15.5958 13.0101 15.8584C12.9725 16.1209 13.0409 16.3876 13.2 16.5998L16.2 20.5998C16.2933 20.7221 16.4136 20.8212 16.5515 20.8894C16.6894 20.9577 16.8412 20.9932 16.995 20.9932C17.1488 20.9932 17.3006 20.9577 17.4385 20.8894C17.5764 20.8212 17.6967 20.7221 17.79 20.5998L20.79 16.7398C20.9255 16.5652 20.9993 16.3507 21 16.1298C20.9996 15.9771 20.9643 15.8265 20.8967 15.6895C20.8291 15.5526 20.731 15.4329 20.61 15.3398C20.4015 15.1774 20.1373 15.1041 19.8749 15.136C19.6126 15.1678 19.3735 15.3022 19.21 15.5098L18 17.0798L18 3.99977C18 3.73456 17.8946 3.4802 17.7071 3.29267C17.5196 3.10513 17.2652 2.99977 17 2.99977C16.7348 2.99977 16.4804 3.10513 16.2929 3.29267C16.1054 3.4802 16 3.73456 16 3.99977Z"/>
</svg>
