<svg width="25" height="25" viewBox="0 0 25 25" fill="none" xmlns="http://www.w3.org/2000/svg">
<path fill-rule="evenodd" clip-rule="evenodd" d="M9.64824 0C6.87909 0 4.84224 0.0922961 3.45229 0.191571C1.68271 0.317958 0.317958 1.68271 0.191571 3.4523C0.0922961 4.84224 0 6.87909 0 9.64824C0 12.4174 0.0922961 14.4542 0.191571 15.8442C0.31464 17.5673 1.61185 18.9065 3.31366 19.0924C3.25671 17.8532 3.21608 16.3213 3.21608 14.4724C3.21608 11.6676 3.30956 9.59244 3.41174 8.16188C3.59511 5.59448 5.59448 3.59511 8.16188 3.41174C9.59244 3.30956 11.6676 3.21608 14.4724 3.21608C16.3213 3.21608 17.8532 3.25671 19.0924 3.31366C18.9065 1.61185 17.5673 0.31464 15.8442 0.191571C14.4542 0.0922961 12.4174 0 9.64824 0ZM14.4724 4.82412C11.7032 4.82412 9.66636 4.91642 8.27642 5.01569C6.50683 5.14208 5.14208 6.50683 5.01569 8.27642C4.91642 9.66636 4.82412 11.7032 4.82412 14.4724C4.82412 17.2415 4.91642 19.2784 5.01569 20.6683C5.14208 22.4379 6.50683 23.8026 8.27642 23.929C9.66636 24.0283 11.7032 24.1206 14.4724 24.1206C17.2415 24.1206 19.2784 24.0283 20.6683 23.929C22.4379 23.8026 23.8026 22.4379 23.929 20.6683C24.0283 19.2784 24.1206 17.2415 24.1206 14.4724C24.1206 11.7032 24.0283 9.66636 23.929 8.27642C23.8026 6.50683 22.4379 5.14208 20.6683 5.01569C19.2784 4.91642 17.2415 4.82412 14.4724 4.82412ZM16.6165 10.1843C16.6165 9.00015 17.5764 8.0402 18.7606 8.0402C19.9447 8.0402 20.9046 9.00015 20.9046 10.1843C20.9046 11.3684 19.9447 12.3283 18.7606 12.3283C17.5764 12.3283 16.6165 11.3684 16.6165 10.1843ZM22.468 17.6293C21.7312 16.9609 21.157 16.4694 20.7193 16.1114C19.9188 15.4567 18.8445 15.353 17.9661 15.9388C17.3959 16.3191 16.6301 16.8847 15.6459 17.7193C14.1496 16.2949 13.1053 15.3854 12.4079 14.815C11.6074 14.1602 10.533 14.0566 9.65467 14.6424C8.92661 15.128 7.87908 15.9161 6.46459 17.1811C6.49959 18.581 6.55861 19.698 6.61971 20.5538C6.68913 21.5255 7.41923 22.2557 8.39108 22.3251C9.74038 22.4214 11.739 22.5126 14.4725 22.5126C17.206 22.5126 19.2045 22.4214 20.5538 22.3251C21.5257 22.2557 22.2558 21.5255 22.3252 20.5538C22.3796 19.7913 22.4324 18.8217 22.468 17.6293Z" fill="white"/>
</svg>
