<svg width="10" height="10" viewBox="0 0 10 10" fill="none" xmlns="http://www.w3.org/2000/svg">
<path d="M10 5C10 4.34339 9.87067 3.69321 9.6194 3.08658C9.36812 2.47995 8.99983 1.92876 8.53553 1.46447C8.07124 1.00017 7.52005 0.631876 6.91342 0.380602C6.30679 0.129329 5.65661 0 5 0C3.67392 0 2.40215 0.526784 1.46447 1.46447C0.526784 2.40215 0 3.67392 0 5C0 6.32608 0.526784 7.59785 1.46447 8.53553C2.40215 9.47322 3.67392 10 5 10C6.32608 10 7.59785 9.47322 8.53553 8.53553C9.47322 7.59785 10 6.32608 10 5ZM8.965 4.5H7.5C7.41754 3.32407 7.01463 2.19318 6.335 1.23C7.03323 1.47798 7.64886 1.91504 8.11324 2.49242C8.57763 3.06981 8.8725 3.76483 8.965 4.5ZM3.54 5.5H6.5C6.37204 6.73529 5.84553 7.89538 5 8.805C4.15504 7.89918 3.6406 6.73465 3.54 5.5ZM3.54 4.5C3.65644 3.27091 4.16879 2.11286 5 1.2C5.85236 2.10306 6.38006 3.26402 6.5 4.5H3.54ZM3.72 1.215C3.03677 2.18351 2.6274 3.31836 2.535 4.5H1.035C1.12945 3.75575 1.4313 3.05306 1.90608 2.47219C2.38086 1.89131 3.00943 1.45567 3.72 1.215ZM1.035 5.5H2.535C2.61735 6.68063 3.02394 7.81564 3.71 8.78C3.00199 8.53816 2.37599 8.1026 1.90313 7.52279C1.43028 6.94299 1.12951 6.24218 1.035 5.5ZM6.31 8.775C6.9942 7.81034 7.40533 6.67887 7.5 5.5H8.975C8.88044 6.24012 8.58076 6.93904 8.10982 7.51778C7.63888 8.09651 7.01546 8.53199 6.31 8.775Z" fill="white"/>
</svg>
