<svg width="80" height="80" viewBox="0 0 80 80" fill="none" xmlns="http://www.w3.org/2000/svg">
<rect x="0.5" y="0.5" width="79" height="79" rx="7.5" fill="#12193C" fill-opacity="0.8"/>
<rect x="0.5" y="0.5" width="79" height="79" rx="7.5" fill="#980000" fill-opacity="0.2"/>
<rect x="0.5" y="0.5" width="79" height="79" rx="7.5" stroke="#F9413E"/>
<path d="M24.4379 52.2727V61H23.381V52.2727H24.4379ZM27.4261 57.0625V61H26.4205V54.4545H27.392V55.4773H27.4773C27.6307 55.1449 27.8636 54.8778 28.1761 54.6761C28.4886 54.4716 28.892 54.3693 29.3864 54.3693C29.8295 54.3693 30.2173 54.4602 30.5497 54.642C30.8821 54.821 31.1406 55.0938 31.3253 55.4602C31.5099 55.8239 31.6023 56.2841 31.6023 56.8409V61H30.5966V56.9091C30.5966 56.3949 30.4631 55.9943 30.196 55.7074C29.929 55.4176 29.5625 55.2727 29.0966 55.2727C28.7756 55.2727 28.4886 55.3423 28.2358 55.4815C27.9858 55.6207 27.7884 55.8239 27.6435 56.0909C27.4986 56.358 27.4261 56.6818 27.4261 57.0625ZM38.5579 54.4545L36.1374 61H35.1147L32.6942 54.4545H33.7852L35.592 59.6705H35.6602L37.467 54.4545H38.5579ZM41.6122 61.1534C41.1974 61.1534 40.821 61.0753 40.483 60.919C40.1449 60.7599 39.8764 60.5312 39.6776 60.233C39.4787 59.9318 39.3793 59.5682 39.3793 59.142C39.3793 58.767 39.4531 58.4631 39.6009 58.2301C39.7486 57.9943 39.946 57.8097 40.1932 57.6761C40.4403 57.5426 40.7131 57.4432 41.0114 57.3778C41.3125 57.3097 41.6151 57.2557 41.919 57.2159C42.3168 57.1648 42.6392 57.1264 42.8864 57.1009C43.1364 57.0724 43.3182 57.0256 43.4318 56.9602C43.5483 56.8949 43.6065 56.7812 43.6065 56.6193V56.5852C43.6065 56.1648 43.4915 55.8381 43.2614 55.6051C43.0341 55.3722 42.6889 55.2557 42.2259 55.2557C41.7457 55.2557 41.3693 55.3608 41.0966 55.571C40.8239 55.7812 40.6321 56.0057 40.5213 56.2443L39.5668 55.9034C39.7372 55.5057 39.9645 55.196 40.2486 54.9744C40.5355 54.75 40.848 54.5937 41.1861 54.5057C41.527 54.4148 41.8622 54.3693 42.1918 54.3693C42.402 54.3693 42.6435 54.3949 42.9162 54.446C43.1918 54.4943 43.4574 54.5952 43.7131 54.7486C43.9716 54.902 44.1861 55.1335 44.3565 55.4432C44.527 55.7528 44.6122 56.1676 44.6122 56.6875V61H43.6065V60.1136H43.5554C43.4872 60.2557 43.3736 60.4077 43.2145 60.5696C43.0554 60.7315 42.8438 60.8693 42.5795 60.983C42.3153 61.0966 41.9929 61.1534 41.6122 61.1534ZM41.7656 60.25C42.1634 60.25 42.4986 60.1719 42.7713 60.0156C43.0469 59.8594 43.2543 59.6577 43.3935 59.4105C43.5355 59.1634 43.6065 58.9034 43.6065 58.6307V57.7102C43.5639 57.7614 43.4702 57.8082 43.3253 57.8509C43.1832 57.8906 43.0185 57.9261 42.831 57.9574C42.6463 57.9858 42.4659 58.0114 42.2898 58.0341C42.1165 58.054 41.9759 58.071 41.8679 58.0852C41.6065 58.1193 41.3622 58.1747 41.1349 58.2514C40.9105 58.3253 40.7287 58.4375 40.5895 58.5881C40.4531 58.7358 40.3849 58.9375 40.3849 59.1932C40.3849 59.5426 40.5142 59.8068 40.7727 59.9858C41.0341 60.1619 41.3651 60.25 41.7656 60.25ZM47.4535 52.2727V61H46.4478V52.2727H47.4535ZM49.2955 61V54.4545H50.3011V61H49.2955ZM49.8068 53.3636C49.6108 53.3636 49.4418 53.2969 49.2997 53.1634C49.1605 53.0298 49.0909 52.8693 49.0909 52.6818C49.0909 52.4943 49.1605 52.3338 49.2997 52.2003C49.4418 52.0668 49.6108 52 49.8068 52C50.0028 52 50.1705 52.0668 50.3097 52.2003C50.4517 52.3338 50.5227 52.4943 50.5227 52.6818C50.5227 52.8693 50.4517 53.0298 50.3097 53.1634C50.1705 53.2969 50.0028 53.3636 49.8068 53.3636ZM54.6147 61.1364C54.0692 61.1364 53.5877 60.9986 53.1701 60.723C52.7525 60.4446 52.4258 60.0526 52.19 59.5469C51.9542 59.0384 51.8363 58.4375 51.8363 57.7443C51.8363 57.0568 51.9542 56.4602 52.19 55.9545C52.4258 55.4489 52.7539 55.0582 53.1744 54.7827C53.5948 54.5071 54.0806 54.3693 54.6317 54.3693C55.0579 54.3693 55.3945 54.4403 55.6417 54.5824C55.8917 54.7216 56.082 54.8807 56.2127 55.0597C56.3462 55.2358 56.4499 55.3807 56.5238 55.4943H56.609V52.2727H57.6147V61H56.6431V59.9943H56.5238C56.4499 60.1136 56.3448 60.2642 56.2085 60.446C56.0721 60.625 55.8775 60.7855 55.6246 60.9276C55.3718 61.0668 55.0352 61.1364 54.6147 61.1364ZM54.7511 60.233C55.1545 60.233 55.4954 60.1278 55.7738 59.9176C56.0522 59.7045 56.2638 59.4105 56.4087 59.0355C56.5536 58.6577 56.6261 58.2216 56.6261 57.7273C56.6261 57.2386 56.555 56.8111 56.413 56.4446C56.271 56.0753 56.0607 55.7884 55.7823 55.5838C55.5039 55.3764 55.1602 55.2727 54.7511 55.2727C54.3249 55.2727 53.9698 55.3821 53.6857 55.6009C53.4045 55.8168 53.1928 56.1108 53.0508 56.483C52.9116 56.8523 52.842 57.267 52.842 57.7273C52.842 58.1932 52.913 58.6165 53.055 58.9972C53.1999 59.375 53.413 59.6761 53.6942 59.9006C53.9783 60.1222 54.3306 60.233 54.7511 60.233Z" fill="#F9413E"/>
<path d="M50.1909 37.1901L49.4109 36.4101L47.0009 34.0001L42.4109 29.4101L32.5909 19.5901L31.8109 18.8101C31.4209 18.4201 30.7909 18.4201 30.4009 18.8101C30.0009 19.2001 30.0009 19.8301 30.3909 20.2201L32.0009 21.8301V35.0001C32.0009 36.1001 32.9009 37.0001 34.0009 37.0001H47.1709L48.7809 38.6101C49.1709 39.0001 49.8009 39.0001 50.1909 38.6101C50.5809 38.2201 50.5809 37.5801 50.1909 37.1901ZM35.0209 34.0001C34.6009 34.0001 34.3709 33.5201 34.6309 33.1901L37.1209 29.9901C37.3209 29.7401 37.7009 29.7301 37.9009 29.9801L40.0009 32.5101L41.1709 31.0001L44.1709 34.0001H35.0209ZM50.0009 34.1701L34.8309 19.0001H48.0009C49.1009 19.0001 50.0009 19.9001 50.0009 21.0001V34.1701Z" fill="#F9413E"/>
</svg>
