<svg width="10" height="9" viewBox="0 0 10 9" fill="none" xmlns="http://www.w3.org/2000/svg">
<path d="M5.00004 0C4.17595 0 3.37037 0.244371 2.68517 0.70221C1.99996 1.16005 1.46591 1.81079 1.15054 2.57215C0.835179 3.33351 0.752665 4.17129 0.913437 4.97954C1.07421 5.7878 1.47105 6.53023 2.05376 7.11295C2.63648 7.69566 3.37891 8.0925 4.18717 8.25327C4.99542 8.41404 5.8332 8.33153 6.59456 8.01617C7.35592 7.7008 8.00666 7.16675 8.4645 6.48154C8.92234 5.79634 9.16671 4.99076 9.16671 4.16667C9.16671 3.61949 9.05894 3.07768 8.84954 2.57215C8.64015 2.06663 8.33323 1.6073 7.94632 1.22039C7.55941 0.833478 7.10008 0.526563 6.59456 0.317169C6.08903 0.107774 5.54722 0 5.00004 0ZM6.79171 3.17083L4.88754 5.67083C4.84873 5.72126 4.79888 5.76212 4.74182 5.79029C4.68476 5.81846 4.62201 5.83318 4.55838 5.83333C4.49509 5.83367 4.43255 5.81959 4.37552 5.79216C4.31848 5.76472 4.26845 5.72466 4.22921 5.675L3.21254 4.37917C3.17889 4.33594 3.15408 4.28651 3.13954 4.23369C3.12499 4.18088 3.12099 4.12572 3.12776 4.07136C3.13453 4.017 3.15194 3.9645 3.179 3.91687C3.20606 3.86924 3.24223 3.8274 3.28546 3.79375C3.37276 3.72579 3.48348 3.69529 3.59327 3.70896C3.64763 3.71574 3.70012 3.73315 3.74776 3.76021C3.79539 3.78726 3.83722 3.82344 3.87088 3.86667L4.55004 4.73333L6.12504 2.65C6.15842 2.60623 6.20009 2.56945 6.24768 2.54179C6.29527 2.51412 6.34784 2.49609 6.4024 2.48874C6.45695 2.48139 6.51242 2.48486 6.56563 2.49894C6.61885 2.51303 6.66877 2.53746 6.71254 2.57083C6.75632 2.60421 6.79309 2.64588 6.82076 2.69347C6.84842 2.74106 6.86645 2.79363 6.8738 2.84819C6.88115 2.90274 6.87769 2.95821 6.8636 3.01143C6.84952 3.06464 6.82509 3.11456 6.79171 3.15833V3.17083Z" fill="#2EE9A5"/>
</svg>
