<svg width="24" height="24" viewBox="0 0 24 24" fill="none" xmlns="http://www.w3.org/2000/svg">
<path d="M8.99994 20L8.99994 7L10.1999 8.6C10.2787 8.70506 10.3775 8.79357 10.4904 8.86048C10.6034 8.92738 10.7285 8.97138 10.8585 8.98995C10.9885 9.00852 11.1209 9.00131 11.2481 8.96872C11.3753 8.93612 11.4949 8.87879 11.5999 8.8C11.7241 8.70685 11.8249 8.58607 11.8944 8.44721C11.9638 8.30836 11.9999 8.15525 11.9999 8C11.9999 7.78363 11.9298 7.5731 11.7999 7.4L8.79994 3.4C8.70662 3.27769 8.58633 3.17857 8.44845 3.11034C8.31056 3.04211 8.15879 3.00661 8.00494 3.00661C7.8511 3.00661 7.69933 3.04211 7.56144 3.11034C7.42355 3.17857 7.30327 3.27769 7.20994 3.4L4.20994 7.26C4.04684 7.46952 3.97364 7.73526 4.00646 7.99874C4.03928 8.26223 4.17542 8.50189 4.38494 8.665C4.59447 8.82811 4.8602 8.90131 5.12369 8.86849C5.38718 8.83567 5.62684 8.69952 5.78994 8.49L6.99994 6.92L6.99994 20C6.99994 20.2652 7.1053 20.5196 7.29284 20.7071C7.48037 20.8946 7.73473 21 7.99994 21C8.26516 21 8.51951 20.8946 8.70705 20.7071C8.89459 20.5196 8.99994 20.2652 8.99994 20Z" fill="white"/>
<path d="M15.9999 3.99977L15.9999 16.9998L14.7999 15.3998C14.6408 15.1876 14.4039 15.0473 14.1413 15.0098C13.8788 14.9723 13.6121 15.0406 13.3999 15.1998C13.1877 15.3589 13.0474 15.5958 13.0099 15.8584C12.9724 16.1209 13.0408 16.3876 13.1999 16.5998L16.1999 20.5998C16.2932 20.7221 16.4135 20.8212 16.5514 20.8894C16.6893 20.9577 16.841 20.9932 16.9949 20.9932C17.1487 20.9932 17.3005 20.9577 17.4384 20.8894C17.5763 20.8212 17.6966 20.7221 17.7899 20.5998L20.7899 16.7398C20.9253 16.5652 20.9992 16.3507 20.9999 16.1298C20.9995 15.9771 20.9642 15.8265 20.8966 15.6895C20.829 15.5526 20.7309 15.4329 20.6099 15.3398C20.4014 15.1774 20.1371 15.1041 19.8748 15.136C19.6125 15.1678 19.3734 15.3022 19.2099 15.5098L17.9999 17.0798L17.9999 3.99977C17.9999 3.73456 17.8945 3.4802 17.707 3.29267C17.5195 3.10513 17.2651 2.99977 16.9999 2.99977C16.7347 2.99977 16.4803 3.10513 16.2928 3.29267C16.1052 3.4802 15.9999 3.73456 15.9999 3.99977Z" fill="white"/>
</svg>
