<svg width="100" height="100" viewBox="0 0 24 24" fill="none" xmlns="http://www.w3.org/2000/svg">
<circle cx="12" cy="12" r="12" fill="#1D1336"/>
<g clip-path="url(#clip0_2784_593)">
<path d="M11.8522 5.71436C10.6532 5.71436 9.50342 6.19473 8.65566 7.04981C7.80789 7.90489 7.33162 9.06463 7.33162 10.2739C7.31646 10.4974 7.31646 10.7218 7.33162 10.9453C8.08644 10.4697 8.93327 10.1622 9.81544 10.0434C11.7031 10.0434 12.5973 11.7871 14.336 11.7871C15.0338 11.7231 15.7007 11.4665 16.2634 11.0455C16.3116 10.7912 16.3349 10.5328 16.333 10.2739C16.3304 9.07234 15.8588 7.92015 15.0202 7.06677C14.1815 6.2134 13.0434 5.72753 11.8522 5.71436V5.71436Z" fill="#F2B705"/>
<path d="M14.3956 12.9693C13.5618 12.9131 12.7647 12.602 12.1105 12.0774C11.4696 11.5689 10.6892 11.2716 9.87505 11.2257C9.03107 11.3233 8.22136 11.6184 7.51046 12.0875C7.48233 12.1105 7.44954 12.1271 7.41438 12.1361C7.37922 12.145 7.34255 12.1461 7.30693 12.1392C7.27132 12.1323 7.23763 12.1177 7.20824 12.0963C7.17884 12.0748 7.15445 12.0472 7.13678 12.0153C7.11911 11.9833 7.10858 11.9479 7.10594 11.9114C7.10331 11.8749 7.10862 11.8383 7.1215 11.8041C7.13439 11.7699 7.15454 11.739 7.18054 11.7135C7.20655 11.688 7.23777 11.6686 7.27201 11.6566C8.0562 11.1463 8.94741 10.8272 9.87505 10.7246C10.7808 10.7729 11.6505 11.098 12.3688 11.6566C12.9362 12.1208 13.6281 12.4034 14.3559 12.4683C15.0222 12.3991 15.6557 12.1421 16.1839 11.7267C16.2112 11.708 16.242 11.6949 16.2743 11.6883C16.3067 11.6817 16.34 11.6816 16.3724 11.6882C16.4048 11.6947 16.4356 11.7077 16.4629 11.7263C16.4902 11.745 16.5136 11.769 16.5317 11.7969C16.5661 11.8517 16.5781 11.9178 16.5651 11.9814C16.5521 12.0449 16.5152 12.1009 16.4621 12.1376C15.8634 12.6033 15.1478 12.8914 14.3956 12.9693V12.9693Z" fill="#53CBC8"/>
<path d="M7.89792 15.1641C7.83204 15.1641 7.76887 15.1377 7.72229 15.0907C7.6757 15.0437 7.64954 14.98 7.64954 14.9136V12.729C7.66094 12.6724 7.6914 12.6214 7.73576 12.5849C7.78012 12.5483 7.83566 12.5283 7.89295 12.5283C7.95024 12.5283 8.00578 12.5483 8.05014 12.5849C8.0945 12.6214 8.12496 12.6724 8.13636 12.729V14.9136C8.13642 14.9783 8.11162 15.0406 8.06716 15.0873C8.02271 15.134 7.96206 15.1615 7.89792 15.1641Z" fill="#53CBC8"/>
<path d="M9.01068 15.2544C8.94481 15.2544 8.88163 15.228 8.83505 15.181C8.78847 15.1341 8.7623 15.0703 8.7623 15.0039V11.9976C8.7623 11.9312 8.78847 11.8674 8.83505 11.8204C8.88163 11.7735 8.94481 11.7471 9.01068 11.7471C9.07656 11.7471 9.13973 11.7735 9.18631 11.8204C9.23289 11.8674 9.25906 11.9312 9.25906 11.9976V15.0039C9.25906 15.0703 9.23289 15.1341 9.18631 15.181C9.13973 15.228 9.07656 15.2544 9.01068 15.2544Z" fill="#53CBC8"/>
<path d="M10.1234 18.0001C10.0908 17.9988 10.0587 17.9911 10.0291 17.9773C9.99944 17.9635 9.97278 17.9439 9.95064 17.9197C9.92849 17.8955 9.91129 17.8671 9.90002 17.8362C9.88876 17.8053 9.88364 17.7725 9.88497 17.7396V12.0376C9.88492 11.9729 9.90972 11.9106 9.95417 11.8639C9.99863 11.8172 10.0593 11.7897 10.1234 11.7871C10.1893 11.7871 10.2525 11.8135 10.2991 11.8605C10.3456 11.9075 10.3718 11.9712 10.3718 12.0376V17.7396C10.3731 17.7733 10.3677 17.807 10.3558 17.8385C10.3439 17.8701 10.3259 17.8989 10.3027 17.9232C10.2795 17.9476 10.2516 17.9669 10.2208 17.9801C10.19 17.9933 10.1569 18.0001 10.1234 18.0001Z" fill="#53CBC8"/>
<path d="M11.2461 15.0238C11.2099 15.0243 11.174 15.0168 11.1409 15.0018C11.1079 14.9867 11.0785 14.9646 11.0548 14.9369C11.0311 14.9092 11.0137 14.8766 11.0039 14.8414C10.994 14.8063 10.9919 14.7693 10.9977 14.7332V12.5186C10.9977 12.4521 11.0239 12.3884 11.0705 12.3414C11.1171 12.2945 11.1802 12.2681 11.2461 12.2681C11.312 12.2681 11.3752 12.2945 11.4218 12.3414C11.4683 12.3884 11.4945 12.4521 11.4945 12.5186V14.7332C11.5003 14.7693 11.4982 14.8063 11.4884 14.8414C11.4785 14.8766 11.4611 14.9092 11.4375 14.9369C11.4138 14.9646 11.3844 14.9867 11.3513 15.0018C11.3183 15.0168 11.2824 15.0243 11.2461 15.0238Z" fill="#53CBC8"/>
<path d="M12.3589 14.2821C12.293 14.2821 12.2298 14.2557 12.1832 14.2087C12.1366 14.1617 12.1105 14.098 12.1105 14.0316V13.1197C12.1105 13.0532 12.1366 12.9895 12.1832 12.9425C12.2298 12.8955 12.293 12.8691 12.3589 12.8691C12.4247 12.8691 12.4879 12.8955 12.5345 12.9425C12.5811 12.9895 12.6072 13.0532 12.6072 13.1197V14.0316C12.6072 14.098 12.5811 14.1617 12.5345 14.2087C12.4879 14.2557 12.4247 14.2821 12.3589 14.2821Z" fill="#53CBC8"/>
<path d="M13.4716 16.8374C13.4057 16.8374 13.3426 16.811 13.296 16.764C13.2494 16.7171 13.2232 16.6533 13.2232 16.5869V13.5806C13.2232 13.5142 13.2494 13.4504 13.296 13.4035C13.3426 13.3565 13.4057 13.3301 13.4716 13.3301C13.5375 13.3301 13.6007 13.3565 13.6473 13.4035C13.6938 13.4504 13.72 13.5142 13.72 13.5806V16.5869C13.72 16.6533 13.6938 16.7171 13.6473 16.764C13.6007 16.811 13.5375 16.8374 13.4716 16.8374Z" fill="#53CBC8"/>
<path d="M14.5844 16.6371C14.5185 16.6371 14.4553 16.6107 14.4087 16.5637C14.3622 16.5167 14.336 16.453 14.336 16.3866V13.731C14.336 13.6645 14.3622 13.6008 14.4087 13.5538C14.4553 13.5069 14.5185 13.4805 14.5844 13.4805C14.6503 13.4805 14.7134 13.5069 14.76 13.5538C14.8066 13.6008 14.8328 13.6645 14.8328 13.731V16.4066C14.8278 16.4695 14.7994 16.5282 14.7533 16.5709C14.7073 16.6137 14.647 16.6373 14.5844 16.6371Z" fill="#53CBC8"/>
<path d="M15.7071 14.9237C15.6412 14.9237 15.578 14.8973 15.5314 14.8503C15.4848 14.8033 15.4587 14.7396 15.4587 14.6731V13.3604C15.4587 13.2939 15.4848 13.2302 15.5314 13.1832C15.578 13.1363 15.6412 13.1099 15.7071 13.1099C15.7729 13.1099 15.8361 13.1363 15.8827 13.1832C15.9293 13.2302 15.9554 13.2939 15.9554 13.3604V14.6731C15.9554 14.7396 15.9293 14.8033 15.8827 14.8503C15.8361 14.8973 15.7729 14.9237 15.7071 14.9237Z" fill="#53CBC8"/>
</g>
<defs>
<clipPath id="clip0_2784_593">
<rect width="9.42857" height="12.2857" fill="white" transform="translate(7.14285 5.71436)"/>
</clipPath>
</defs>
</svg>
