<?xml version="1.0" encoding="utf-8"?>
<!-- Generator: Adobe Illustrator 27.0.0, SVG Export Plug-In . SVG Version: 6.00 Build 0)  -->
<svg version="1.1" id="Layer_1" xmlns="http://www.w3.org/2000/svg" xmlns:xlink="http://www.w3.org/1999/xlink" x="0px" y="0px"
	 viewBox="0 0 20 20" style="enable-background:new 0 0 20 20;" xml:space="preserve">
<style type="text/css">
	.st0{fill-rule:evenodd;clip-rule:evenodd;fill:url(#SVGID_1_);}
</style>
<linearGradient id="SVGID_1_" gradientUnits="userSpaceOnUse" x1="11.2003" y1="4.7133" x2="8.3992" y2="16.7121" gradientTransform="matrix(0.9985 5.460411e-02 -5.460411e-02 0.9985 0.6102 -0.5787)">
	<stop  offset="5.150034e-02" style="stop-color:#FF9E00"/>
	<stop  offset="0.4537" style="stop-color:#F50E84"/>
	<stop  offset="1" style="stop-color:#7200C3"/>
</linearGradient>
<path class="st0" d="M10.2,12.6c0,0.3-0.2,0.5-0.5,0.5c0,0-0.1,0-0.2,0c-0.9-0.1-4.8-0.4-5.1-3.2C4.3,8.3,4.6,7.1,4.8,6.3
	C4.9,5.6,5,5.2,4.9,5c0,0,0,0,0,0c0,0,0,0,0,0c-0.2-0.2-0.2-0.5,0-0.7c0,0,0,0,0,0c0,0,0,0,0,0c0,0,0,0,0,0c0,0,0,0,0,0
	C5.1,4,5.4,4,5.6,4.2c0,0,0,0,0,0c0,0,0,0,0,0c0.2,0.1,0.6,0.1,1.3,0c0.9-0.1,2.1-0.3,3.6,0c3.1,0.6,2.7,5.4,2.7,5.6
	c0,0.3-0.3,0.5-0.5,0.5c0,0,0,0,0,0c-0.3,0-0.5-0.3-0.5-0.6c0,0,0.3-4.1-1.8-4.5C9,5.1,8,5.2,7.1,5.3l0,0C6.7,5.4,6.3,5.4,6,5.4
	c0,0.3-0.1,0.7-0.2,1.1C5.6,7.3,5.3,8.4,5.4,9.8c0.2,2.1,4.1,2.3,4.2,2.3c0,0,0,0,0,0C9.9,12.1,10.2,12.3,10.2,12.6z M17.3,8.7
	c0-0.4-0.1-0.8-0.4-1.1c-0.3-0.3-0.6-0.5-1-0.5c-0.4,0-0.8,0.1-1.1,0.4c-0.3,0.3-0.5,0.6-0.5,1c0,0.2,0,0.4,0.1,0.6
	c0,0.1,0.1,0.2,0.1,0.3c0.2,0.3,0.2,0.6,0.2,0.8c-0.1,0.4-0.3,0.8-0.7,1.1c-0.7,0.6-1.5,0.7-1.9,0.3c-0.2-0.2-0.5-0.2-0.7,0
	c-0.2,0.2-0.2,0.5,0,0.7c0.2,0.3,0.2,0.6,0.2,0.8c-0.1,0.4-0.3,0.8-0.7,1.1c-0.3,0.3-0.7,0.5-1.1,0.5c-0.2,0-0.5,0-0.8-0.2
	c-0.1-0.1-0.2-0.1-0.3-0.2c-0.5-0.3-1.2-0.2-1.7,0.2c-0.6,0.5-0.7,1.5-0.1,2.1c0.3,0.3,0.6,0.5,1,0.5c0.4,0,0.8-0.1,1.1-0.4
	c0.3-0.3,0.5-0.6,0.5-1l0,0c0,0,0,0,0,0c0.7,0,1.4-0.2,2.1-0.8c0.5-0.4,0.8-1,1-1.6c0-0.1,0-0.3,0-0.4c0,0,0,0,0,0c0,0,0,0,0.1,0
	c0.7,0,1.4-0.2,2.1-0.8c0.5-0.4,0.8-1,1-1.6c0-0.1,0-0.2,0-0.4c0.4,0,0.8-0.1,1-0.4C17.1,9.4,17.2,9,17.3,8.7z M8.4,15.8
	c-0.2,0.2-0.5,0.2-0.7,0c-0.2-0.2-0.2-0.5,0-0.7C7.8,15.1,8,15,8.1,15c0.1,0,0.2,0.1,0.3,0.2C8.6,15.4,8.6,15.7,8.4,15.8z M16.1,8.9
	c-0.2,0.2-0.5,0.2-0.7,0c-0.1-0.1-0.1-0.2-0.1-0.3c0-0.1,0.1-0.2,0.2-0.3c0.1-0.1,0.2-0.1,0.3-0.1c0.1,0,0.2,0.1,0.3,0.2l0,0
	c0.1,0.1,0.1,0.2,0.1,0.3C16.3,8.7,16.2,8.8,16.1,8.9z M11.3,8.5c0,0.4-0.3,0.6-0.7,0.6c-0.4,0-0.6-0.3-0.6-0.7
	c0-0.4,0.3-0.6,0.7-0.6C11,7.9,11.3,8.2,11.3,8.5z M9.3,10.3c0,0.4-0.3,0.6-0.7,0.6c-0.4,0-0.6-0.3-0.6-0.7c0-0.4,0.3-0.6,0.7-0.6
	C9,9.6,9.3,10,9.3,10.3z"/>
</svg>