<svg width="24" height="24" viewBox="0 0 24 24" fill="none" xmlns="http://www.w3.org/2000/svg">
<path fill-rule="evenodd" clip-rule="evenodd" d="M11.0271 15.4557C11.0456 15.9832 10.6334 16.4261 10.1055 16.445C10.0681 16.4464 9.94655 16.4502 9.75774 16.4502C8.05046 16.4502 0.823819 16.1459 0.153617 11.0309C-0.226348 8.13099 0.181892 5.94204 0.480072 4.34381C0.716329 3.07781 0.833079 2.34775 0.588299 1.95097C0.576716 1.94054 0.565065 1.93036 0.553413 1.92017C0.52828 1.89821 0.503144 1.87624 0.478675 1.85179C0.104783 1.47844 0.104783 0.872774 0.478675 0.499432C0.480523 0.497586 0.482571 0.496072 0.48462 0.494556C0.486558 0.493124 0.488497 0.491691 0.490271 0.489974C0.491985 0.488203 0.49341 0.486275 0.494834 0.484349C0.496345 0.482306 0.497854 0.480264 0.499704 0.478416C0.873127 0.104835 1.47977 0.104835 1.85319 0.478421C1.87778 0.502994 1.89989 0.528244 1.92198 0.55349C1.93206 0.565 1.94213 0.57651 1.95244 0.587953C2.34962 0.832645 3.07976 0.716078 4.34728 0.479817C5.94684 0.18165 8.13645 -0.22625 11.04 0.153634C16.7255 0.897525 16.4719 9.72197 16.4584 10.0972C16.4397 10.6132 16.0153 11.0185 15.5026 11.0185C15.4911 11.0185 15.4797 11.0183 15.4682 11.0181C14.9401 10.9994 14.5272 10.5565 14.5454 10.029C14.548 9.95429 14.7564 2.56883 10.7913 2.05002C8.19088 1.71065 6.25526 2.07055 4.69968 2.35979L4.69805 2.36009C3.96396 2.49697 3.27349 2.62559 2.63758 2.63561C2.6275 3.27087 2.4988 3.96068 2.36192 4.69427C2.07192 6.24883 1.71111 8.18328 2.05159 10.7825C2.56394 14.6934 9.77357 14.5393 10.0307 14.5338C10.0341 14.5338 10.0363 14.5337 10.0372 14.5337C10.5628 14.5113 11.0084 14.9281 11.0271 15.4557ZM24 7.06255C24 6.30932 23.7065 5.60115 23.1735 5.06856C22.6404 4.53574 21.9314 4.24225 21.1773 4.24225C20.4235 4.24225 19.7145 4.53574 19.1817 5.06833C18.6484 5.60092 18.3547 6.30932 18.3547 7.06255C18.3547 7.4861 18.4506 7.894 18.6265 8.2658C18.6608 8.44895 18.7482 8.62412 18.89 8.76585C19.3548 9.23026 19.3308 9.91461 19.2752 10.2814C19.1642 11.0118 18.7477 11.7832 18.1329 12.3978C16.9425 13.5876 15.2783 13.9341 14.4975 13.1543C14.1236 12.7811 13.5177 12.7809 13.1438 13.1545C12.7701 13.5281 12.7701 14.1335 13.144 14.5071C13.6088 14.9715 13.5848 15.6558 13.5291 16.0227C13.4181 16.753 13.0017 17.5244 12.3869 18.139C11.7718 18.7533 10.9998 19.1694 10.2688 19.2803C9.90192 19.3349 9.21676 19.3599 8.7515 18.8955C8.60369 18.7476 8.41909 18.6607 8.22712 18.6299C7.18411 18.1502 5.90963 18.3295 5.05114 19.1869C3.95096 20.2866 3.95096 22.0756 5.05137 23.1756C5.60169 23.7252 6.32424 24 7.04726 24C7.77003 24 8.49305 23.725 9.04337 23.1753C9.58569 22.6332 9.85793 21.9235 9.86559 21.2115L9.87283 21.2119C9.87535 21.212 9.87787 21.2122 9.88043 21.2122C11.1813 21.2122 12.6091 20.6217 13.7404 19.4913C14.6513 18.5814 15.2484 17.4514 15.4217 16.3096C15.4655 16.0219 15.4779 15.7393 15.4655 15.4642C15.4849 15.4649 15.5042 15.466 15.5235 15.4671C15.5576 15.469 15.5917 15.4709 15.6262 15.4709C16.9271 15.4709 18.3554 14.8804 19.4864 13.7501C20.3973 12.8402 20.9944 11.7101 21.1678 10.5684C21.2032 10.3352 21.2139 10.1065 21.2124 9.88116C21.9533 9.87214 22.6488 9.58127 23.1732 9.057C23.7065 8.52442 24 7.81602 24 7.06255ZM7.68965 21.8227C7.33539 22.1772 6.75889 22.1765 6.40509 21.823C6.05083 21.469 6.05083 20.8932 6.40486 20.5395C6.58199 20.3625 6.81451 20.274 7.04726 20.274C7.27977 20.274 7.51252 20.3625 7.68965 20.5393C8.04368 20.8932 8.04345 21.469 7.68965 21.8227ZM21.8195 7.70441C21.4764 8.04694 20.8787 8.04717 20.5352 7.70418C20.3637 7.5328 20.269 7.30515 20.269 7.06255C20.269 6.82019 20.3637 6.59254 20.5354 6.42092C20.7069 6.24954 20.9348 6.15498 21.1773 6.15498C21.4201 6.15498 21.648 6.24954 21.8195 6.42092L21.8197 6.42116C21.9913 6.59254 22.0857 6.82019 22.0857 7.06255C22.0857 7.30514 21.9913 7.5328 21.8195 7.70441ZM12.5369 7.98616C12.5369 8.63145 12.0133 9.15457 11.3675 9.15457C10.7217 9.15457 10.1981 8.63145 10.1981 7.98616C10.1981 7.34086 10.7217 6.81775 11.3675 6.81775C12.0133 6.81775 12.5369 7.34086 12.5369 7.98616ZM9.161 11.3592C9.161 12.0045 8.63745 12.5277 7.99161 12.5277C7.34577 12.5277 6.82222 12.0045 6.82222 11.3592C6.82222 10.7139 7.34577 10.1908 7.99161 10.1908C8.63745 10.1908 9.161 10.7139 9.161 11.3592Z" fill="url(#paint0_linear_2787_627)"/>
<defs>
<linearGradient id="paint0_linear_2787_627" x1="6.93944" y1="23.9092" x2="0.966607" y2="-1.67585" gradientUnits="userSpaceOnUse">
<stop stop-color="#7200C3"/>
<stop offset="0.541667" stop-color="#F50E84"/>
<stop offset="1" stop-color="#FF9E00"/>
</linearGradient>
</defs>
</svg>
