<svg width="24" height="24" viewBox="0 0 24 24" fill="none" xmlns="http://www.w3.org/2000/svg">
<path fill-rule="evenodd" clip-rule="evenodd" d="M14.4988 3.68336C15.6978 2.14064 17.8389 1.83847 19.5337 1.7802C21.3283 1.71797 20.0544 2.90423 20.0544 2.90423C18.8959 3.72596 18.7525 6.0192 18.7525 6.0192C16.8266 4.13081 14.4988 3.68336 14.4988 3.68336ZM4.86419 9.73969C4.86419 9.73969 3.59564 3.80704 10.6449 3.88552C11.3741 3.89364 12.1923 3.96604 13.1101 4.11604C24.0604 5.90435 22.6289 20.2103 13.0519 19.6934C13.0629 19.6813 13.0724 19.6714 13.0818 19.6615C13.0908 19.6522 13.0996 19.6429 13.1098 19.6319C13.0648 19.6618 13.0261 19.6811 12.9902 19.6907C13.0014 19.6914 13.0125 19.6918 13.0235 19.6922C13.0329 19.6925 13.0424 19.6929 13.0519 19.6934C13.0263 19.7213 13.0002 19.7496 12.9738 19.7785C12.5424 20.2486 11.9992 20.8408 11.3225 21.4582C9.97931 22.6849 8.28047 22.0657 8.28047 22.0657C7.86269 21.9778 8.19058 21.6697 8.19058 21.6697C9.81032 20.6694 9.92262 19.7973 10.0078 19.1355C10.0534 18.7812 10.0913 18.4872 10.3486 18.2661C10.4273 18.1984 10.539 18.1533 10.6668 18.1209L10.6609 18.1158C10.6243 18.0836 10.6028 18.0615 10.5941 18.0481C10.5233 17.9832 10.4629 17.9158 10.4286 17.8435C10.2836 17.538 10.3687 17.2547 10.4713 16.9131C10.6628 16.2752 10.9153 15.4342 9.84297 13.8672C9.84297 13.8672 9.66805 13.4533 10.0858 13.5422C10.0858 13.5422 11.8894 13.6637 12.6173 15.3249C12.9784 16.1501 13.2344 16.912 13.4359 17.5113C13.5345 17.8049 13.6201 18.0595 13.6985 18.2634C15.2347 17.7079 17.765 16.2875 15.8015 13.2864C14.1215 10.7195 10.7269 10.9535 7.41627 11.8711C4.59553 12.6533 3.99613 12.3342 3.99613 12.3342C3.99613 12.3342 1.74518 11.956 4.86419 9.73969ZM10.9344 11.6143C10.9344 11.6143 11.2666 11.5448 11.6877 11.5418C11.8281 11.5408 11.9783 11.5471 12.1294 11.5659C12.7724 11.6459 13.4281 11.9275 13.2947 12.0223C13.036 12.207 13.3136 14.602 13.3136 14.602C11.4904 13.9985 10.9344 11.6143 10.9344 11.6143ZM13.9365 18.8069C13.9336 18.8035 13.9307 18.8001 13.9284 18.7968C13.9185 18.8058 13.9074 18.8146 13.8879 18.8215L13.9493 18.8277C13.9487 18.8215 13.9426 18.8142 13.9365 18.8069ZM8.85827 8.44096C8.85827 7.96393 8.46913 7.57677 7.98913 7.57677C7.50913 7.57677 7.12 7.96393 7.12 8.44096C7.12 8.918 7.50913 9.30516 7.98913 9.30516C8.46913 9.30516 8.85827 8.918 8.85827 8.44096Z" fill="url(#paint0_linear_2787_644)"/>
<defs>
<linearGradient id="paint0_linear_2787_644" x1="4.49999" y1="1.99991" x2="15.5" y2="26.9999" gradientUnits="userSpaceOnUse">
<stop stop-color="#51FFE0"/>
<stop offset="1" stop-color="#00B2FF"/>
</linearGradient>
</defs>
</svg>
