<svg width="23" height="23" viewBox="0 0 23 23" fill="none" xmlns="http://www.w3.org/2000/svg">
<path d="M1.61627 4.61856L8.32275 11.3233L8.49962 11.5001L8.32273 11.6769L1.6168 18.3793C1.61672 18.3794 1.61664 18.3795 1.61657 18.3796C1.22076 18.7779 0.99898 19.3172 1.00012 19.8788C1.00126 20.4403 1.22542 20.9782 1.62308 21.375C2.02074 21.7718 2.55938 21.9949 3.1209 21.9948C3.6825 21.9948 4.22115 21.7719 4.61864 21.3751L1.61627 4.61856ZM1.61627 4.61856C1.61626 4.61855 1.61626 4.61855 1.61625 4.61854C1.21822 4.2205 0.994873 3.68053 0.994873 3.1174C0.994873 2.55426 1.21823 2.01428 1.61627 1.61624C2.01431 1.2182 2.55429 0.994843 3.11743 0.994843C3.68057 0.994843 4.22055 1.2182 4.61859 1.61624L11.3233 8.32099L11.5001 8.49779L11.6769 8.32097L18.3799 1.61624C18.7779 1.2182 19.3179 0.994843 19.8811 0.994843C20.4442 0.994843 20.9842 1.2182 21.3822 1.61624C21.7803 2.01428 22.0036 2.55426 22.0036 3.1174C22.0036 3.68054 21.7803 4.22052 21.3822 4.61856L14.6775 11.3233L14.5007 11.5001L14.6775 11.6769L21.3817 18.3793C21.3818 18.3794 21.3819 18.3796 21.382 18.3797C21.7778 18.778 21.9995 19.3173 21.9984 19.8788C21.9972 20.4403 21.7731 20.9782 21.3754 21.375C20.9778 21.7718 20.4391 21.9949 19.8776 21.9948C19.3159 21.9948 18.7772 21.7719 18.3797 21.375L11.6769 14.6739L11.5001 14.4972L11.3234 14.6739L4.61874 21.375L1.61627 4.61856Z" fill="white" stroke="#53B5AD" stroke-width="0.5"/>
</svg>
